<?xml version="1.0" standalone="no"?>
<!DOCTYPE svg PUBLIC "-//W3C//DTD SVG 20010904//EN"
 "http://www.w3.org/TR/2001/REC-SVG-20010904/DTD/svg10.dtd">
<svg version="1.0" xmlns="http://www.w3.org/2000/svg"
 width="80" height="80" viewBox="0 0 816.000000 818.000000"
 preserveAspectRatio="xMidYMid meet">

<g transform="translate(0.000000,818.000000) scale(0.100000,-0.100000)"
fill="#FFFFFF" stroke="none">
<path d="M3720 8029 c-1261 -125 -2362 -819 -3016 -1899 -282 -465 -459 -977
-536 -1550 -30 -223 -33 -717 -5 -940 97 -775 382 -1450 865 -2050 99 -122
348 -378 477 -489 548 -473 1211 -787 1915 -905 253 -43 368 -51 685 -50 330
0 484 15 775 74 1599 322 2856 1640 3104 3253 39 255 49 418 43 710 -5 270
-18 405 -62 640 -192 1038 -808 1970 -1695 2561 -512 341 -1059 545 -1702 632
-136 19 -704 27 -848 13z m378 -91 c-3 -7 -15 -15 -28 -18 -13 -3 -28 -12 -33
-21 -13 -21 35 -492 52 -513 8 -10 29 -16 51 -16 30 0 43 6 62 28 12 16 81
142 153 280 71 138 132 248 136 244 4 -4 35 -104 69 -222 102 -357 106 -370
148 -387 68 -28 71 -22 141 237 34 127 61 241 59 253 -2 12 -16 28 -31 35 -17
8 -25 18 -20 23 11 11 303 -70 359 -99 56 -28 84 -76 84 -138 0 -73 -33 -123
-95 -148 -28 -11 -52 -21 -54 -23 -2 -1 16 -62 39 -135 45 -145 72 -185 114
-174 19 5 35 33 86 153 133 314 132 310 84 332 -46 21 -15 31 34 12 120 -48
206 -88 209 -98 2 -5 -14 -9 -38 -9 l-42 1 -88 -210 c-49 -115 -89 -220 -89
-231 0 -12 6 -27 14 -33 18 -15 87 -17 115 -2 12 7 119 85 237 173 119 88 218
157 221 154 3 -3 -11 -126 -31 -273 -20 -148 -36 -280 -36 -295 0 -27 49 -78
75 -78 21 0 47 27 184 190 136 161 147 183 116 227 -30 43 2 30 74 -30 l73
-62 -6 -120 c-3 -66 -9 -163 -12 -215 -4 -61 -3 -91 3 -85 5 6 47 54 91 108
83 99 97 132 67 157 -8 7 -15 16 -15 21 0 20 25 7 84 -43 33 -29 63 -53 65
-54 1 -2 0 -8 -4 -14 -5 -9 -10 -9 -18 -1 -6 6 -23 11 -39 11 -23 0 -52 -29
-194 -197 -91 -109 -170 -199 -175 -201 -12 -5 -11 38 2 293 6 115 9 228 7
249 l-3 40 -115 -137 c-63 -76 -118 -148 -123 -159 -6 -16 -2 -30 12 -49 38
-51 4 -40 -72 24 -42 34 -123 89 -181 122 -58 33 -106 64 -106 68 0 4 15 5 34
2 40 -8 50 4 59 75 l6 46 -79 46 -78 46 -36 -26 c-47 -33 -57 -69 -27 -93 13
-10 20 -23 17 -28 -4 -5 -40 10 -81 35 -42 24 -81 44 -88 44 -14 0 -244 96
-261 109 -6 4 -41 16 -78 25 -57 15 -67 21 -73 44 -22 94 -87 281 -99 285 -10
4 -21 -21 -41 -95 -29 -111 -27 -145 10 -154 27 -7 34 -24 10 -24 -8 0 -72 16
-142 34 -103 28 -283 56 -360 56 -7 0 -13 5 -13 10 0 6 11 10 25 10 37 0 44
24 26 91 -12 47 -19 59 -36 60 -11 0 -52 3 -92 7 l-71 8 -21 -43 c-29 -61 -27
-82 9 -96 58 -22 35 -33 -47 -24 -101 11 -157 10 -272 -3 -52 -6 -97 -8 -100
-4 -3 4 -1 8 4 11 45 17 60 31 62 58 2 17 -7 127 -20 245 l-22 215 -70 -263
c-69 -263 -79 -292 -90 -280 -3 3 -62 115 -131 249 -104 203 -124 237 -119
199 3 -25 14 -128 24 -228 20 -196 26 -213 75 -215 14 -1 26 -7 26 -13 0 -10
-92 -24 -162 -24 -35 0 -36 16 -3 24 46 12 48 33 22 284 -14 129 -30 238 -37
246 -6 8 -23 16 -36 18 -14 2 -26 8 -27 13 -1 6 45 14 107 20 128 13 102 36
212 -187 44 -87 81 -158 84 -158 3 0 18 51 33 113 16 61 38 148 50 192 l23 80
94 11 c132 16 132 16 128 2z m-1123 -269 c121 -57 198 -230 165 -368 -15 -63
-80 -139 -144 -170 -25 -11 -96 -39 -158 -62 -62 -23 -162 -70 -221 -106 -59
-35 -113 -61 -118 -57 -5 3 2 14 15 25 31 24 26 38 -30 84 l-44 36 -62 -35
c-101 -56 -100 -55 -92 -105 9 -59 35 -84 70 -71 36 14 44 3 15 -19 -39 -29
-129 -76 -135 -70 -4 3 1 20 9 37 15 29 13 50 -26 322 -23 160 -39 293 -36
297 3 3 99 -68 214 -157 114 -88 227 -173 251 -187 38 -22 46 -24 73 -13 57
24 56 31 -38 282 l-88 233 -37 0 c-21 0 -38 4 -39 10 0 5 64 33 143 62 167 61
236 68 313 32z m1525 -554 c857 -114 1607 -570 2105 -1281 281 -400 461 -878
521 -1384 19 -160 21 -497 5 -650 -69 -633 -313 -1200 -722 -1675 -732 -850
-1873 -1225 -2969 -975 -750 171 -1420 635 -1846 1280 -356 540 -520 1122
-501 1774 15 498 149 978 390 1399 236 413 586 786 977 1042 417 274 899 440
1405 485 138 12 496 4 635 -15z m-2563 -68 c62 -32 128 -103 160 -174 21 -45
25 -66 21 -122 -5 -96 -37 -143 -178 -264 -62 -53 -121 -110 -131 -125 -29
-45 -177 -198 -184 -190 -4 3 1 17 9 31 9 13 14 32 10 41 -4 10 -86 89 -182
177 -177 160 -205 177 -232 144 -15 -18 -30 -20 -30 -2 1 17 187 214 195 205
4 -3 -1 -18 -11 -33 -14 -22 -15 -30 -4 -48 7 -12 89 -91 182 -174 116 -105
177 -153 193 -153 26 0 85 66 85 95 0 16 -260 335 -310 380 -21 19 -23 19 -52
2 -50 -29 -47 -8 6 40 105 95 213 174 256 188 60 20 136 12 197 -18z m5019
-435 c50 -25 120 -100 145 -155 26 -58 25 -158 -2 -217 -26 -58 -91 -125 -154
-158 -43 -23 -62 -27 -135 -27 -75 0 -91 3 -132 27 -88 53 -148 154 -148 253
0 127 94 249 224 291 55 18 152 12 202 -14z m-5758 -204 c40 -27 70 -53 67
-58 -3 -4 -26 -2 -52 6 -66 20 -119 10 -160 -31 -39 -39 -43 -78 -11 -112 31
-33 67 -29 172 19 155 70 251 61 312 -32 56 -84 30 -193 -62 -262 -36 -28 -49
-45 -51 -65 0 -16 -2 -32 -2 -37 -1 -6 -6 -5 -12 1 -9 9 -21 -8 -49 -66 -44
-90 -27 -82 -225 -102 -111 -11 -145 -20 -145 -39 0 -11 181 -94 202 -93 10 1
27 12 38 25 40 50 28 4 -29 -111 -59 -118 -90 -154 -76 -91 4 20 2 37 -6 46
-13 16 -382 205 -426 218 -17 5 -29 1 -49 -19 -14 -14 -29 -23 -32 -20 -10 10
136 292 171 332 56 64 120 78 193 42 53 -25 84 -72 84 -128 0 -22 3 -41 8 -41
4 0 65 7 137 15 111 14 175 32 175 50 0 2 -34 28 -75 56 -80 56 -87 79 -16 54
24 -8 60 -15 79 -15 74 0 152 61 152 120 0 30 -53 80 -85 80 -14 0 -70 -19
-123 -42 -79 -35 -108 -43 -159 -43 -53 0 -66 4 -100 31 -104 83 -96 216 18
287 46 28 49 33 43 60 -7 34 -13 36 94 -35z m6187 -532 c96 -44 149 -120 169
-241 10 -56 16 -71 32 -73 45 -9 34 -23 -50 -63 -47 -23 -89 -39 -92 -36 -3 3
6 22 21 41 39 51 57 120 45 166 -19 72 -77 120 -143 120 -58 0 -163 -38 -228
-83 -66 -45 -99 -93 -99 -142 0 -36 34 -113 53 -120 16 -7 120 39 137 60 7 9
10 26 6 41 -5 18 -3 25 5 22 17 -6 114 -216 104 -226 -4 -4 -10 -1 -12 6 -12
33 -41 33 -114 0 l-72 -32 -45 49 c-25 28 -61 84 -81 125 -29 61 -36 86 -35
135 0 33 6 78 14 99 17 54 85 124 145 152 69 33 170 33 240 0z m-6749 -462
c47 -14 82 -30 79 -35 -4 -5 -28 -9 -55 -9 -60 0 -98 -31 -124 -98 -28 -74
-27 -75 82 -106 53 -16 103 -31 110 -33 8 -4 12 6 12 30 0 35 -29 69 -86 103
-10 7 -16 15 -13 18 9 9 292 -76 290 -87 0 -5 -26 -10 -57 -10 -48 -2 -59 -6
-81 -31 -18 -21 -21 -31 -12 -37 27 -16 198 -61 213 -56 8 3 23 31 32 62 23
80 13 119 -46 177 -26 27 -44 50 -40 53 15 9 170 -68 169 -84 -1 -35 -126
-425 -137 -429 -8 -2 -10 5 -6 25 4 20 0 33 -13 45 -19 16 -441 148 -475 148
-13 0 -24 -11 -31 -30 -12 -32 -27 -40 -27 -14 0 19 122 424 128 424 2 0 42
-12 88 -26z m6539 -164 c25 -27 54 -34 325 -70 129 -18 238 -35 242 -39 4 -3
-90 -82 -209 -176 -118 -93 -219 -179 -224 -191 -9 -25 -3 -74 11 -88 12 -12
58 -10 273 13 98 10 184 24 192 31 8 7 15 23 15 36 0 13 5 24 10 24 6 0 10 -2
10 -5 0 -15 21 -204 26 -232 6 -39 -13 -45 -22 -8 -3 14 -14 30 -24 35 -15 8
-358 -20 -427 -35 -29 -7 -35 -29 -23 -99 12 -74 42 -109 113 -128 85 -24 71
-38 -37 -38 -53 0 -96 1 -96 3 0 2 -11 108 -25 237 -18 173 -33 264 -55 344
-17 60 -28 111 -24 115 4 3 9 1 11 -5 2 -6 10 -20 17 -30 13 -18 16 -17 65 16
28 19 51 37 51 40 0 3 -11 41 -23 85 -22 79 -23 79 -62 88 -58 11 -87 -4 -83
-44 6 -58 -16 -31 -39 48 -12 43 -23 81 -23 86 0 13 17 7 35 -13z m-6756 -352
c15 -39 49 -62 296 -201 131 -74 241 -139 242 -144 2 -5 -126 -43 -284 -84
-222 -57 -293 -79 -311 -96 -29 -29 -44 -29 -38 0 3 12 10 70 17 130 7 59 16
107 20 107 5 0 9 -9 9 -19 0 -31 11 -51 29 -51 26 0 351 84 351 92 0 12 -285
163 -310 163 -17 0 -28 -8 -38 -27 -18 -39 -36 -36 -29 5 3 17 9 58 13 90 7
60 19 72 33 35z m7451 -650 c0 -94 -12 -198 -21 -192 -5 3 -9 16 -9 29 0 13
-4 26 -9 30 -10 5 -331 -106 -331 -115 1 -11 270 -130 295 -130 20 0 28 7 36
30 19 54 28 32 22 -52 -3 -46 -7 -84 -9 -86 -1 -2 -20 13 -41 34 -27 26 -105
69 -263 144 -123 59 -226 112 -227 117 -2 6 85 43 194 83 293 108 327 122 338
148 17 38 25 25 25 -40z m-6950 -113 c0 -90 -4 -145 -10 -145 -5 0 -10 11 -10
23 0 13 -9 32 -20 42 -18 17 -38 18 -252 12 -128 -3 -241 -9 -251 -12 -10 -4
-21 -20 -24 -36 -13 -67 -23 -20 -23 111 0 87 4 140 10 140 6 0 10 -9 10 -19
0 -48 15 -51 271 -51 226 0 240 1 259 20 11 11 20 29 20 40 0 11 5 20 10 20 6
0 10 -55 10 -145z m20 -257 c0 -6 -91 -104 -202 -216 -112 -113 -198 -207
-192 -209 22 -7 377 56 391 70 8 7 15 27 16 43 4 50 21 28 34 -43 14 -81 16
-123 5 -123 -4 0 -13 13 -19 30 -6 17 -21 32 -34 35 -13 3 -120 -9 -237 -28
-181 -29 -217 -38 -237 -57 -14 -13 -25 -34 -25 -47 0 -35 -18 -28 -24 10 -3
17 -11 61 -17 96 l-10 64 153 154 c102 102 147 153 134 153 -10 0 -73 -9 -140
-21 -126 -21 -156 -36 -156 -75 0 -13 -4 -25 -9 -28 -5 -4 -14 27 -21 66 -6
40 -14 80 -16 90 -8 28 15 31 28 3 6 -14 22 -28 35 -31 13 -4 135 12 271 34
290 47 272 45 272 30z m6386 -122 c-5 -21 13 -56 29 -56 2 0 90 -18 195 -40
210 -44 248 -48 255 -25 3 8 7 23 10 32 3 10 9 13 14 7 9 -9 -69 -408 -82
-420 -8 -8 -157 25 -157 35 0 5 21 11 46 14 31 3 55 13 71 29 26 26 60 135 46
148 -9 9 -154 40 -184 40 -13 0 -19 -7 -19 -21 0 -36 20 -60 67 -81 25 -11 41
-24 37 -28 -8 -7 -209 28 -267 46 -30 9 -8 24 37 24 47 0 83 22 88 54 3 17 -9
22 -89 39 -51 11 -99 17 -107 14 -8 -3 -20 -31 -26 -62 -10 -49 -9 -64 5 -101
15 -40 56 -86 87 -97 7 -2 10 -8 5 -12 -6 -7 -152 37 -164 49 -3 3 72 380 83
419 8 27 27 20 20 -7z m70 -682 l179 -226 19 43 c39 91 31 158 -27 203 -46 36
-19 36 60 0 l71 -33 -71 -190 c-40 -105 -74 -191 -77 -191 -3 0 -86 102 -185
227 l-179 226 -24 -64 c-48 -128 -43 -179 24 -246 25 -25 43 -47 41 -50 -3 -2
-45 16 -95 41 l-90 45 79 208 c44 114 81 214 84 221 2 6 6 12 8 12 2 0 85
-102 183 -226z m-6377 172 c63 -33 121 -136 121 -215 -1 -41 -35 -106 -69
-130 -18 -13 -115 -54 -218 -91 -102 -38 -189 -74 -194 -81 -4 -7 -5 -26 -2
-41 3 -17 1 -28 -6 -28 -6 0 -11 1 -11 3 0 2 -20 59 -45 127 -25 68 -45 127
-45 132 0 16 19 7 25 -12 15 -46 35 -44 236 29 105 39 202 77 216 86 54 36 51
120 -8 169 -44 37 -100 34 -234 -13 -248 -87 -261 -94 -251 -143 4 -19 1 -28
-7 -28 -11 0 -67 139 -67 168 0 21 16 13 28 -13 16 -36 41 -33 204 26 79 29
154 55 168 60 42 13 129 10 159 -5z m331 -1007 c79 -44 105 -157 55 -232 -79
-116 -258 -85 -294 51 -38 140 111 253 239 181z m5693 -4 c116 -79 85 -258
-51 -294 -140 -38 -253 111 -181 239 45 79 157 106 232 55z m-4936 -633 c56
-29 107 -75 145 -129 28 -42 32 -44 65 -38 41 7 43 13 -36 -98 -30 -42 -58
-74 -62 -70 -4 5 -3 29 2 55 15 70 -8 144 -60 191 -81 73 -160 58 -264 -53
-77 -81 -130 -181 -130 -243 0 -74 52 -140 120 -152 25 -5 32 0 72 60 39 58
43 68 33 90 -6 14 -16 25 -22 25 -5 0 -10 5 -10 10 0 6 5 10 11 10 18 0 218
-144 219 -157 0 -16 -6 -16 -30 -3 -29 15 -47 3 -97 -67 -43 -60 -47 -64 -77
-58 -55 11 -172 74 -224 120 -68 61 -96 127 -96 225 -1 59 4 85 23 120 42 82
125 153 211 181 45 15 162 4 207 -19z m4227 -116 c225 -121 262 -138 292 -133
23 4 34 2 34 -6 -1 -16 -201 -177 -213 -170 -4 3 1 15 12 27 12 12 21 28 21
34 0 10 -95 72 -112 72 -3 0 -37 -25 -75 -56 -72 -60 -75 -67 -49 -129 17 -41
41 -53 67 -37 22 14 39 15 39 3 0 -12 -140 -124 -147 -118 -2 3 1 21 8 40 11
32 6 54 -69 309 -45 151 -85 283 -88 293 -5 12 -3 16 7 14 8 -2 131 -66 273
-143z m-3850 -139 c65 -34 117 -66 115 -72 -2 -5 -8 -8 -14 -6 -5 3 -23 5 -40
5 -28 1 -33 -6 -122 -179 -98 -191 -112 -232 -94 -271 15 -33 69 -64 111 -64
75 0 113 46 229 277 28 57 51 113 51 125 0 12 -10 32 -22 45 -12 13 -19 25
-16 28 8 8 178 -77 178 -88 0 -5 -16 -6 -35 -3 -47 9 -60 -6 -144 -171 -113
-223 -144 -254 -248 -255 -41 -1 -68 6 -110 28 -77 40 -115 89 -121 156 -4 50
1 63 92 247 93 186 96 194 81 217 -8 13 -20 24 -26 24 -6 0 -7 5 -4 10 9 15
11 14 139 -53z m3183 -37 c-15 -12 -27 -29 -27 -38 0 -9 55 -109 123 -222 138
-232 129 -225 221 -166 65 41 81 75 73 154 -3 31 -7 63 -8 71 -2 7 1 15 6 17
6 2 29 -40 53 -92 38 -86 41 -97 27 -107 -58 -43 -407 -238 -413 -232 -4 4 3
14 16 22 14 10 22 25 22 42 -1 15 -52 112 -123 231 -130 217 -133 220 -191
195 -14 -6 -18 -5 -14 5 6 20 241 158 252 149 6 -5 -2 -17 -17 -29z m-243
-406 c168 -172 217 -216 238 -218 54 -2 27 -23 -93 -70 -123 -49 -156 -53
-104 -12 l29 23 -43 52 c-24 28 -44 51 -45 51 -1 0 -40 -15 -87 -34 l-84 -34
-3 -52 c-4 -65 10 -84 55 -77 22 4 33 2 33 -6 0 -14 -158 -79 -171 -71 -5 3 1
19 14 35 21 29 22 42 29 302 3 150 7 284 7 300 1 15 4 27 8 27 4 0 101 -97
217 -216z m-2324 154 c0 -54 29 -500 35 -544 3 -23 15 -50 25 -59 38 -35 8
-33 -115 8 -121 40 -160 67 -92 63 l32 -1 3 66 3 67 -86 31 c-47 17 -89 31
-93 31 -11 0 -72 -82 -72 -97 0 -7 13 -22 30 -34 49 -37 25 -39 -70 -7 -83 27
-108 48 -59 48 28 0 85 56 275 270 92 105 171 190 176 190 4 0 8 -15 8 -32z
m410 -94 c124 -25 230 -47 236 -49 9 -3 8 -23 -3 -77 -8 -40 -18 -77 -23 -81
-4 -5 -14 17 -21 49 -15 62 -40 88 -95 99 l-31 6 -49 -246 c-51 -259 -52 -276
-5 -283 11 -2 21 -10 21 -18 0 -10 -6 -14 -17 -10 -10 2 -67 14 -128 26 -60
12 -118 24 -127 26 -28 8 -21 27 7 21 53 -10 62 10 114 270 l48 242 -42 7
c-54 8 -95 -12 -120 -60 -34 -63 -43 -46 -24 46 13 68 17 78 26 78 4 0 109
-20 233 -46z m1490 36 c0 -5 -11 -12 -25 -16 -14 -3 -30 -14 -34 -23 -6 -11 5
-100 33 -255 45 -254 53 -274 104 -261 14 3 22 1 22 -8 0 -8 -43 -20 -132 -35
-150 -25 -158 -26 -158 -12 0 6 6 10 14 10 8 0 24 8 36 18 l21 17 -36 205
c-20 113 -39 215 -43 228 -5 16 -24 -63 -61 -248 -30 -148 -57 -270 -61 -270
-4 0 -72 103 -151 230 -79 126 -144 228 -146 226 -7 -7 71 -414 83 -433 10
-15 24 -23 44 -23 33 0 49 -16 23 -24 -31 -9 -136 -26 -160 -26 -31 0 -29 16
2 24 45 12 46 37 4 272 -21 120 -43 229 -48 242 -8 17 -19 22 -45 22 l-35 0
-7 -70 c-3 -38 -10 -70 -14 -70 -3 0 -13 21 -21 47 -20 64 -53 86 -135 91 -49
3 -69 1 -75 -9 -5 -8 -9 -60 -9 -116 0 -111 2 -115 54 -92 23 11 41 46 62 117
2 7 7 11 11 9 5 -3 7 -76 5 -162 -3 -166 -14 -194 -38 -100 -12 50 -43 85 -74
85 -15 0 -18 -14 -24 -101 -8 -131 -4 -139 75 -139 33 0 74 6 92 14 38 15 84
66 93 102 3 13 12 24 19 24 9 0 9 -21 -4 -93 l-16 -92 -210 3 c-115 2 -222 5
-237 8 -34 7 -37 24 -4 24 47 0 50 17 57 269 4 141 3 243 -3 254 -5 10 -22 20
-39 24 -16 3 -29 10 -29 14 0 12 451 -1 466 -12 6 -5 57 -1 120 11 90 16 111
17 119 6 6 -7 53 -83 105 -169 52 -86 97 -156 100 -157 3 0 23 88 44 195 21
107 39 195 40 196 7 2 195 37 209 38 9 1 17 -3 17 -9z"/>
<path d="M5045 7767 c-2 -7 -17 -62 -33 -124 l-30 -111 22 -6 c40 -11 91 -6
115 10 44 31 67 136 41 184 -18 34 -107 70 -115 47z"/>
<path d="M4366 7622 l-46 -89 71 -7 c39 -4 73 -5 76 -3 4 5 -43 176 -51 184
-2 2 -24 -36 -50 -85z"/>
<path d="M5823 7183 c-40 -31 -71 -59 -68 -63 6 -10 116 -73 119 -68 5 5 27
180 24 183 -2 1 -36 -22 -75 -52z"/>
<path d="M2759 7627 l-36 -12 84 -225 c46 -124 90 -231 97 -238 11 -12 18 -11
42 1 75 39 92 114 54 239 -38 126 -93 208 -157 234 -37 16 -37 16 -84 1z"/>
<path d="M2250 7178 c0 -7 5 -50 12 -96 l11 -82 46 26 c92 54 91 45 12 108
-74 60 -81 63 -81 44z"/>
<path d="M4040 7007 c-3 -3 -52 -8 -110 -11 -58 -4 -118 -8 -135 -10 -16 -2
-59 -7 -95 -11 -36 -4 -68 -9 -72 -11 -3 -2 -28 -7 -54 -10 -27 -3 -52 -8 -56
-10 -5 -3 -21 -8 -36 -10 -197 -35 -519 -155 -737 -275 -500 -275 -889 -662
-1164 -1157 -129 -233 -261 -592 -295 -802 -3 -19 -9 -48 -12 -65 -4 -16 -8
-37 -9 -45 -1 -8 -5 -31 -9 -50 -14 -78 -31 -307 -31 -435 0 -135 11 -287 30
-415 3 -19 8 -53 10 -75 20 -146 102 -434 175 -610 63 -149 192 -399 202 -389
3 3 70 18 149 34 79 16 198 45 264 64 66 19 121 33 123 31 7 -7 62 -176 62
-190 0 -23 -38 -29 -187 -29 -90 -1 -142 -5 -140 -11 1 -6 65 -10 169 -9 l166
0 7 -65 c4 -35 9 -70 12 -76 3 -8 -15 -14 -54 -19 -83 -9 -164 -32 -182 -52
-15 -15 -14 -16 14 -11 17 2 57 11 90 20 107 28 137 29 165 8 l25 -20 -53 -7
c-44 -5 -55 -11 -63 -31 -9 -25 -15 -28 -71 -38 -48 -8 -49 -25 -3 -25 41 0
90 22 103 46 11 20 227 70 344 80 102 9 106 12 88 66 -14 42 -17 43 -65 49
-27 3 -58 9 -68 14 -42 18 -62 120 -34 175 18 35 71 68 146 90 36 10 150 43
253 74 225 66 284 72 548 54 l185 -14 -50 -16 c-27 -9 -62 -19 -77 -22 -37 -8
-36 -26 1 -26 34 0 153 43 151 55 -3 13 23 25 56 25 17 0 87 11 155 25 68 14
156 28 196 32 67 5 74 4 103 -21 38 -31 102 -35 171 -10 59 21 183 29 247 15
41 -9 67 -8 129 5 57 12 109 15 191 12 98 -5 114 -3 120 11 6 14 16 15 77 6
l70 -10 -32 -23 c-55 -39 -137 -72 -180 -72 -48 0 -73 -8 -73 -22 0 -7 25 -9
69 -6 56 4 82 13 150 49 45 24 84 52 87 62 5 16 13 18 57 12 90 -11 310 -13
335 -4 21 8 23 14 18 39 -3 17 -3 30 -1 30 2 0 37 -13 78 -29 98 -39 135 -48
249 -60 54 -6 132 -22 175 -36 95 -30 117 -31 210 -5 63 18 96 21 243 18 l170
-3 49 116 c91 215 174 507 196 689 4 30 9 66 11 80 24 158 24 572 0 730 -2 14
-7 50 -10 80 -4 30 -9 63 -12 72 -7 24 -14 57 -21 103 -3 22 -20 94 -39 159
-124 444 -366 874 -678 1206 -407 433 -956 742 -1520 855 -111 22 -145 27
-261 41 -101 12 -399 27 -405 21z m1071 -542 c36 -76 61 -96 170 -136 113 -41
131 -52 178 -105 72 -82 136 -248 99 -257 -7 -2 -35 -11 -63 -20 -38 -12 -51
-13 -57 -4 -5 8 -8 3 -8 -11 0 -13 -5 -33 -12 -45 -21 -40 -71 -97 -85 -97
-11 0 -11 -4 -1 -20 12 -19 13 -20 20 0 13 35 110 150 139 165 51 27 83 20
107 -24 27 -48 28 -61 3 -61 -11 0 -33 -17 -48 -37 -45 -59 -99 -93 -149 -93
-24 0 -46 5 -50 11 -5 8 -10 6 -16 -5 -6 -10 -16 -15 -27 -11 -15 4 -17 1 -14
-18 6 -28 -17 -50 -49 -45 -16 2 -39 27 -76 83 -78 118 -87 175 -27 175 26 0
43 -18 79 -85 15 -27 35 -61 45 -74 l18 -23 -5 31 c-3 24 -1 31 12 31 9 0 16
6 16 14 0 7 7 20 17 27 25 22 53 90 53 133 0 56 -34 121 -78 148 -30 19 -56
24 -143 29 -76 4 -114 10 -133 22 -47 31 -26 87 40 107 26 7 26 8 6 9 -13 1
-32 -3 -42 -9 -15 -8 -19 -5 -22 15 -4 18 0 26 14 30 26 9 51 61 40 83 -5 9
-12 43 -15 75 -5 52 -4 57 14 57 14 0 28 -18 50 -65z m-77 20 c9 -36 3 -42
-39 -37 l-36 4 27 29 c34 36 40 36 48 4z m12 -81 c9 -36 -10 -72 -43 -80 -15
-4 -61 0 -104 9 l-77 16 -79 -27 c-43 -15 -95 -37 -115 -50 -21 -13 -48 -22
-60 -20 -21 3 -19 7 27 56 83 90 167 120 337 121 107 1 108 1 114 -25z m-220
-90 c-3 -9 -9 -27 -12 -40 -3 -13 -10 -21 -16 -18 -5 3 -18 -2 -29 -12 -17
-15 -23 -16 -37 -6 -9 7 -25 15 -34 18 -31 11 -19 28 35 51 64 27 102 30 93 7z
m50 -27 c-2 -17 -1 -22 1 -10 7 37 29 47 52 24 11 -11 23 -16 26 -11 4 6 15
10 26 10 22 0 22 0 -5 -79 -11 -31 -13 -32 -29 -17 -13 14 -21 15 -38 6 -17
-10 -21 -8 -26 9 -5 21 -23 29 -23 11 0 -17 -19 -11 -30 9 -16 31 17 100 41
85 4 -2 6 -19 5 -37z m-148 -60 c6 -7 9 -23 5 -35 -8 -33 6 -27 18 8 10 28 40
47 58 36 4 -3 12 -25 16 -48 6 -39 8 -41 16 -20 12 32 53 27 57 -7 5 -33 -17
-109 -34 -115 -28 -11 -40 4 -37 47 l3 42 -11 -35 c-11 -37 -45 -74 -60 -64
-5 3 -9 16 -9 30 0 13 -4 24 -10 24 -5 0 -10 -8 -10 -19 0 -10 -7 -24 -15 -31
-13 -11 -15 -4 -15 56 0 38 -3 86 -6 107 -5 29 -3 37 8 37 9 0 20 -6 26 -13z
m210 -35 c9 -7 8 -13 -8 -27 -11 -10 -20 -13 -20 -7 0 6 -3 17 -6 26 -7 17 12
21 34 8z m58 -33 c3 -6 -5 -23 -19 -37 -14 -15 -31 -40 -36 -55 -14 -36 -35
-30 -39 10 -5 53 70 120 94 82z m133 -55 c82 -69 43 -194 -61 -194 -73 0 -118
42 -118 110 0 42 15 67 53 90 44 28 89 25 126 -6z m168 0 c67 -51 89 -128 59
-208 -19 -50 -46 -80 -54 -58 -2 7 -11 18 -18 25 -8 7 -20 17 -27 23 -9 8 -15
7 -23 -5 -11 -14 -14 -14 -33 3 -25 23 -27 54 -4 63 10 4 23 -2 35 -16 20 -25
24 -21 8 10 -6 10 -20 19 -30 19 -17 0 -20 7 -20 48 0 29 -8 62 -21 86 l-20
39 60 -5 c40 -3 71 -11 88 -24z m-374 -81 c2 -5 7 -20 11 -35 6 -28 6 -28 -42
-28 -59 0 -83 -16 -148 -101 -25 -32 -58 -66 -74 -74 -64 -33 -160 -8 -214 55
-32 39 -34 58 -4 38 19 -13 32 -13 91 -2 38 8 76 19 83 25 11 9 14 7 14 -9 0
-35 -49 -65 -95 -59 l-40 5 32 -14 c35 -15 69 -8 92 20 7 8 25 48 40 88 26 72
28 73 71 85 51 13 177 17 183 6z m33 -98 c80 -50 34 -205 -61 -205 -63 0 -68
7 -35 55 17 24 30 50 30 58 0 30 -31 26 -69 -9 l-39 -35 -7 30 c-7 31 11 77
39 100 36 30 98 33 142 6z m-542 -53 c58 -76 119 -112 188 -112 41 0 56 7 122
54 15 10 28 17 31 15 2 -2 5 -22 7 -43 3 -37 0 -42 -46 -77 -27 -21 -53 -45
-58 -53 -12 -22 -1 -54 22 -66 31 -17 60 3 94 66 20 38 37 58 46 55 8 -2 33
-5 55 -8 83 -9 151 62 141 145 l-6 42 41 -2 c33 -3 41 -7 46 -28 9 -40 48
-111 92 -169 23 -30 41 -58 41 -62 0 -10 -98 -131 -123 -152 -26 -21 -96 -56
-114 -57 -8 0 -13 15 -13 40 0 29 -4 40 -15 40 -10 0 -15 -10 -15 -31 l0 -31
-29 31 c-49 53 -94 33 -84 -36 5 -32 4 -33 -31 -33 -55 0 -91 23 -115 74 -11
25 -21 50 -21 56 0 27 -46 126 -68 147 -48 45 -57 24 -13 -31 16 -20 33 -51
36 -69 4 -18 15 -61 26 -96 26 -86 25 -185 -1 -218 -32 -41 -34 -85 -10 -245
20 -132 22 -176 17 -341 -3 -112 -2 -200 4 -215 5 -14 31 -52 58 -86 115 -146
255 -401 351 -641 53 -135 96 -220 152 -305 40 -60 50 -68 146 -118 99 -52
102 -54 102 -88 0 -19 -1 -34 -2 -34 -2 0 -25 7 -52 15 -32 10 -53 12 -59 6
-16 -16 50 -115 136 -206 57 -62 73 -84 62 -89 -26 -9 -61 10 -147 83 -54 45
-86 66 -93 60 -6 -6 8 -24 40 -52 27 -23 63 -54 80 -69 l30 -27 -30 -1 c-38 0
-79 27 -132 87 -23 26 -45 45 -49 41 -3 -4 14 -31 40 -60 49 -56 48 -70 -5
-43 -61 32 -107 100 -144 215 -37 115 -105 222 -235 370 -120 137 -308 379
-369 475 -35 55 -87 129 -116 165 -66 82 -77 104 -109 221 -14 53 -51 161 -81
240 -81 211 -96 271 -105 444 -4 83 -11 159 -15 170 -19 48 -100 167 -103 150
-2 -9 12 -40 31 -68 61 -93 68 -112 70 -201 2 -102 3 -101 -159 -216 -61 -43
-135 -103 -164 -132 l-52 -53 -67 1 c-78 1 -125 19 -234 92 -41 28 -118 74
-171 102 -138 74 -139 92 -10 262 160 211 412 486 525 574 149 115 328 169
523 157 82 -4 91 -7 110 -31z m872 -28 c15 -22 15 -27 2 -40 -19 -19 -47 -8
-54 22 -12 47 25 61 52 18z m-406 -13 c0 -5 -27 -43 -60 -84 -33 -42 -60 -82
-60 -90 0 -24 -31 -57 -54 -57 -54 0 -58 62 -5 84 16 7 58 47 95 89 57 68 84
86 84 58z m740 -4 c0 -25 -31 -57 -56 -57 -13 0 -24 3 -24 8 1 12 24 38 45 50
26 15 35 15 35 -1z m-917 -655 c24 -44 57 -148 57 -179 0 -12 -77 -39 -86 -30
-8 7 -34 180 -34 223 0 71 19 67 63 -14z m-1548 -222 c4 -6 39 -26 79 -44 39
-18 120 -65 179 -104 108 -71 109 -72 70 -72 -57 0 -107 17 -133 45 -13 14
-30 25 -39 25 -11 0 -6 -9 15 -30 44 -44 115 -61 287 -67 146 -5 147 -6 147
-29 0 -14 -19 -45 -46 -76 -26 -29 -48 -54 -49 -55 0 -2 -46 8 -101 21 -89 22
-97 23 -77 6 13 -10 55 -23 95 -30 97 -15 98 -16 98 -45 0 -23 -4 -25 -45 -25
-26 0 -76 12 -121 30 -42 17 -113 35 -158 41 -46 6 -94 18 -112 30 -37 23 -45
24 -38 5 9 -23 64 -44 139 -51 39 -4 104 -21 145 -37 41 -16 103 -32 138 -35
57 -5 62 -8 62 -30 0 -13 -6 -25 -12 -27 -234 -69 -403 -143 -547 -239 -46
-32 -86 -55 -88 -53 -2 2 -15 53 -29 112 -14 60 -32 141 -41 179 -24 106 -22
257 5 323 29 70 94 182 106 182 11 0 134 -99 202 -162 28 -26 72 -57 98 -68
41 -19 254 -54 265 -44 6 6 -17 11 -119 29 -122 21 -169 42 -250 114 -36 31
-96 81 -133 111 -45 34 -66 58 -63 67 4 8 6 20 6 26 0 7 10 28 22 47 l22 35 7
-47 c4 -26 10 -52 14 -58z m1685 -5 c126 -65 153 -263 73 -520 -29 -91 -62
-157 -77 -152 -6 2 -43 46 -83 98 l-71 94 -4 237 -3 236 50 15 c52 15 72 13
115 -8z m-658 -247 c70 -190 148 -418 148 -434 0 -8 -77 -38 -200 -78 -110
-36 -218 -75 -241 -87 -23 -11 -45 -17 -49 -12 -15 16 -123 308 -125 337 -2
17 -9 50 -16 73 l-13 42 47 50 c37 40 47 57 47 85 0 57 49 84 220 120 41 9 86
22 100 30 14 7 27 11 29 9 2 -1 26 -63 53 -135z m-468 -351 c9 -12 27 -57 41
-100 14 -43 38 -104 55 -136 27 -54 81 -287 146 -636 29 -153 14 -239 -56
-319 -47 -53 -92 -72 -190 -80 -103 -8 -114 -12 -308 -92 -162 -68 -335 -124
-609 -199 -203 -56 -254 -77 -293 -121 -36 -42 -46 -92 -31 -158 17 -74 42
-96 108 -96 48 0 54 -3 63 -26 14 -35 13 -35 -14 -28 -12 3 -63 -4 -112 -16
-49 -12 -108 -22 -132 -22 -68 -2 -80 18 -98 153 -8 62 -26 145 -41 184 -64
177 -66 226 -10 253 15 7 90 17 167 22 102 6 151 14 182 28 24 11 115 70 203
132 483 340 530 370 592 372 31 1 42 -5 68 -35 28 -33 55 -48 55 -31 0 13 -26
52 -60 92 -48 54 -96 145 -159 305 -28 70 -62 144 -75 165 -13 20 -36 68 -51
106 l-28 69 24 18 c80 62 450 217 521 218 18 1 33 -7 42 -22z m1199 -77 c46
-36 117 -157 173 -293 99 -238 151 -323 232 -377 l42 -28 -46 -47 c-63 -65
-46 -71 19 -7 79 78 114 69 171 -46 15 -29 31 -50 35 -47 5 3 21 26 36 53 15
26 37 57 48 70 25 28 77 30 101 3 20 -22 36 -111 36 -205 0 -87 -15 -78 -37
20 -24 108 -59 131 -107 73 -56 -66 -61 -84 -58 -217 3 -150 -8 -202 -43 -202
-33 0 -39 38 -33 205 6 142 5 144 -51 213 l-34 41 -42 -29 c-68 -47 -103 -50
-96 -7 0 4 -5 7 -13 7 -32 0 -90 105 -152 276 -53 148 -173 397 -240 499 -12
18 -12 24 2 43 19 27 25 27 57 2z m-397 -275 c62 -93 124 -186 138 -205 l25
-35 -54 -197 c-30 -109 -61 -214 -70 -234 -30 -72 -15 -124 53 -186 78 -70
152 -102 312 -133 47 -10 88 -19 92 -21 3 -2 3 -16 -1 -32 l-7 -27 -150 -8
c-202 -12 -267 -12 -344 -3 -56 7 -76 5 -151 -19 -108 -33 -136 -31 -167 15
-34 51 -27 128 23 245 65 153 84 247 96 455 16 309 28 462 40 527 12 61 13 63
32 45 11 -9 71 -93 133 -187z m-1365 42 c6 -15 9 -30 6 -33 -10 -10 -65 7 -92
27 -33 27 -32 43 8 66 l32 20 17 -26 c10 -14 23 -38 29 -54z m2270 -609 c40
-54 48 -71 49 -111 l0 -37 -52 26 c-29 15 -72 38 -96 51 l-42 25 52 38 c29 21
56 39 59 39 3 1 16 -13 30 -31z"/>
<path d="M5070 6361 c0 -6 19 -24 42 -41 l41 -30 -29 -1 c-16 -1 -2 -5 31 -10
32 -5 75 -14 94 -20 49 -17 130 -95 157 -154 26 -55 33 -49 9 8 -33 79 -103
137 -215 178 -35 13 -79 36 -97 52 -18 16 -33 24 -33 18z"/>
<path d="M5432 6025 c0 -16 2 -22 5 -12 2 9 2 23 0 30 -3 6 -5 -1 -5 -18z"/>
<path d="M5080 5661 c0 -30 5 -53 14 -61 21 -16 60 -9 64 13 4 18 -53 97 -69
97 -5 0 -9 -22 -9 -49z"/>
<path d="M5640 2838 c0 -9 33 -24 93 -42 50 -15 103 -34 116 -43 17 -11 26
-12 35 -3 16 17 -15 36 -104 64 -113 36 -140 40 -140 24z"/>
<path d="M4613 2809 c-32 -9 -50 -25 -40 -36 3 -2 32 0 64 7 80 16 93 20 93
31 0 11 -74 10 -117 -2z"/>
<path d="M5235 2808 c-11 -6 -45 -34 -75 -64 -30 -29 -72 -60 -92 -68 -51 -22
-57 -36 -13 -36 30 0 47 10 104 63 38 34 80 70 95 80 39 27 22 48 -19 25z"/>
<path d="M5370 2804 c0 -4 5 -24 12 -46 10 -35 14 -39 37 -33 39 10 43 27 14
57 -24 25 -63 38 -63 22z"/>
<path d="M3193 2779 c-5 -4 -28 -9 -52 -11 -47 -3 -71 -27 -29 -29 26 -1 -185
-57 -219 -58 -45 -2 -22 -19 30 -23 35 -3 65 2 94 14 28 12 79 20 155 24 62 4
130 12 152 19 31 10 50 9 100 -1 35 -7 86 -10 119 -7 83 9 68 28 -22 28 -65 0
-74 3 -90 24 -17 23 -25 24 -125 26 -58 1 -109 -2 -113 -6z"/>
<path d="M2965 2765 c-22 -8 -41 -15 -42 -15 -2 0 -3 -7 -3 -16 0 -10 6 -14
14 -11 8 3 33 11 55 18 23 7 40 17 38 23 -5 16 -19 16 -62 1z"/>
<path d="M4423 2761 c-80 -21 -104 -41 -47 -41 46 1 136 31 142 48 5 15 -17
14 -95 -7z"/>
<path d="M5960 2751 c0 -10 48 -21 91 -21 19 0 29 5 29 15 0 12 -13 15 -60 15
-33 0 -60 -4 -60 -9z"/>
<path d="M4087 2743 c-21 -21 11 -73 46 -73 24 0 30 18 17 51 -12 28 -46 40
-63 22z"/>
<path d="M6207 2743 c-10 -3 -17 -9 -15 -14 2 -5 67 -10 146 -12 90 -1 141 1
139 8 -2 5 -14 12 -28 16 -27 8 -214 9 -242 2z"/>
<path d="M3805 2730 c-101 -8 -125 -15 -125 -37 0 -12 7 -14 28 -9 15 4 73 11
130 16 107 10 126 15 117 31 -7 10 -14 10 -150 -1z"/>
<path d="M5800 2683 c0 -10 107 -79 143 -92 35 -14 87 -14 87 -1 0 5 -12 13
-27 16 -16 4 -63 24 -105 45 -78 39 -98 46 -98 32z"/>
<path d="M5570 2665 c0 -8 8 -15 18 -15 29 0 78 -36 101 -74 24 -39 41 -46 41
-19 0 30 -44 83 -86 103 -48 24 -74 26 -74 5z"/>
<path d="M5288 2643 c-14 -16 -33 -43 -42 -60 -26 -51 4 -42 43 12 18 25 36
45 42 45 5 0 9 7 9 15 0 23 -24 18 -52 -12z"/>
<path d="M3210 2650 c-10 -7 28 -10 115 -9 82 0 123 4 110 9 -28 12 -207 12
-225 0z"/>
<path d="M4460 2630 c-14 -5 -51 -16 -82 -25 -34 -9 -58 -21 -58 -29 0 -16 76
-5 147 22 63 24 56 54 -7 32z"/>
<path d="M2643 2593 c-27 -10 -11 -21 53 -37 99 -25 151 -66 83 -66 -20 0 -29
-4 -27 -12 6 -19 62 -22 77 -4 11 12 19 11 64 -9 29 -13 70 -31 92 -40 l40
-17 -50 -24 c-27 -13 -58 -24 -67 -24 -24 0 -48 -11 -48 -21 0 -18 71 -8 142
20 155 61 273 70 428 33 100 -25 221 -28 170 -6 -23 11 -207 47 -290 58 -19 2
-79 -2 -133 -11 -113 -17 -131 -13 -277 61 l-85 44 62 7 c34 4 95 4 136 0 53
-5 81 -3 98 6 l24 13 -25 7 c-34 9 -235 10 -285 0 -28 -5 -60 -2 -105 11 -36
10 -65 18 -65 17 0 0 -6 -3 -12 -6z"/>
<path d="M4217 2539 c-38 -23 -52 -27 -67 -19 -29 15 -35 -6 -7 -25 19 -12 31
-13 51 -5 38 14 86 52 86 67 0 18 -8 16 -63 -18z"/>
<path d="M5500 2538 c0 -13 10 -39 22 -58 18 -29 23 -32 26 -16 4 21 -26 96
-40 96 -4 0 -8 -10 -8 -22z"/>
<path d="M6112 2530 c7 -21 248 -62 248 -43 0 14 -105 42 -186 50 -54 5 -66 4
-62 -7z"/>
<path d="M4010 2521 c-54 -8 -90 -26 -90 -46 0 -12 7 -12 48 1 26 8 62 17 80
21 17 3 32 12 32 19 0 15 -1 15 -70 5z"/>
<path d="M4900 2490 c-52 -10 -116 -21 -141 -25 -26 -3 -55 -12 -65 -20 -17
-13 -16 -14 21 -15 34 0 169 22 294 48 43 9 54 32 14 31 -15 0 -71 -9 -123
-19z"/>
<path d="M2630 2486 c0 -12 10 -16 36 -16 45 0 42 24 -4 28 -24 2 -32 -1 -32
-12z"/>
<path d="M2674 2300 c-68 -28 -73 -149 -7 -179 25 -12 76 -15 85 -5 3 3 4 13
1 23 -3 13 -11 17 -29 13 -30 -5 -64 22 -64 52 0 38 29 68 61 64 19 -3 30 1
34 10 3 8 4 16 2 18 -9 10 -65 12 -83 4z"/>
<path d="M2824 2298 c-28 -13 -44 -49 -44 -99 0 -89 106 -124 145 -48 29 55
13 127 -32 148 -29 13 -41 13 -69 -1z m70 -60 c20 -57 -29 -115 -61 -72 -16
22 -17 58 -2 85 15 29 51 21 63 -13z"/>
<path d="M3193 2300 c-31 -12 -43 -41 -43 -99 0 -42 4 -53 26 -70 62 -49 129
-7 129 81 0 42 -4 53 -28 74 -30 25 -48 28 -84 14z m64 -61 c10 -20 10 -34 2
-58 -19 -55 -69 -35 -69 29 0 62 43 80 67 29z"/>
<path d="M3377 2294 c-64 -35 -62 -147 3 -174 37 -15 85 -9 85 10 0 9 -13 17
-35 20 -48 7 -72 48 -50 88 12 20 23 27 45 27 34 0 55 23 34 36 -20 13 -50 10
-82 -7z"/>
<path d="M3673 2303 c-22 -4 -23 -9 -23 -99 0 -87 1 -94 20 -94 17 0 20 7 20
41 0 50 20 49 36 -2 8 -23 19 -35 33 -37 19 -3 21 0 15 25 -4 15 -11 38 -15
50 -5 13 -4 25 1 28 14 9 12 61 -2 72 -17 13 -58 21 -85 16z m52 -58 c0 -11
-8 -21 -17 -23 -14 -3 -18 3 -18 23 0 20 4 26 18 23 9 -2 17 -12 17 -23z"/>
<path d="M4073 2300 c-45 -18 -41 -75 7 -103 44 -26 40 -51 -6 -44 -32 5 -35
4 -32 -16 2 -17 11 -23 38 -25 40 -3 65 12 75 46 6 19 -1 31 -36 62 -34 32
-39 41 -25 46 9 3 23 3 31 0 20 -7 32 23 14 35 -17 11 -37 10 -66 -1z"/>
<path d="M5038 2303 c-16 -4 -18 -17 -18 -99 0 -86 2 -95 18 -92 12 2 18 14
20 41 4 48 18 47 32 -3 8 -30 16 -40 31 -40 18 0 20 4 13 33 -10 39 -10 77 0
98 15 34 -49 75 -96 62z m50 -55 c-5 -32 -28 -35 -28 -4 0 17 5 26 16 26 10 0
14 -7 12 -22z"/>
<path d="M5198 2303 c-16 -4 -18 -17 -18 -99 l0 -94 35 0 c57 0 93 24 105 70
16 59 -6 105 -57 119 -21 6 -40 10 -43 10 -3 -1 -13 -3 -22 -6z m63 -43 c14
-8 19 -21 19 -48 0 -41 -14 -62 -42 -62 -15 0 -18 9 -18 60 0 62 5 68 41 50z"/>
<path d="M5563 2303 c-22 -4 -23 -9 -23 -100 l0 -96 52 5 c65 7 98 39 98 98 0
65 -55 105 -127 93z m77 -65 c13 -25 13 -31 0 -55 -9 -16 -26 -29 -38 -31 -21
-3 -22 0 -22 58 0 58 1 61 22 58 12 -2 29 -15 38 -30z"/>
<path d="M2972 2208 c3 -79 6 -93 21 -96 15 -3 17 5 17 55 l0 58 33 -57 c20
-37 38 -58 49 -58 16 0 18 11 18 95 0 88 -1 95 -20 95 -17 0 -20 -7 -20 -47
l-1 -48 -25 48 c-19 37 -30 47 -50 47 l-25 0 3 -92z"/>
<path d="M3502 2208 l3 -93 53 -3 c47 -3 52 -1 52 17 0 17 -6 21 -30 21 -23 0
-30 5 -30 19 0 14 8 21 27 23 17 2 29 10 31 21 3 13 -3 17 -27 17 -24 0 -31 4
-31 20 0 16 7 20 30 20 20 0 30 5 30 15 0 12 -13 15 -55 15 l-56 0 3 -92z"/>
<path d="M3810 2205 l0 -95 55 0 c48 0 55 2 55 20 0 16 -7 20 -35 20 -28 0
-35 4 -35 20 0 16 7 20 30 20 23 0 30 5 30 19 0 14 -8 21 -27 23 -40 4 -36 32
5 36 20 2 32 9 32 18 0 10 -14 14 -55 14 l-55 0 0 -95z"/>
<path d="M3960 2205 c0 -88 1 -95 20 -95 19 0 20 7 20 95 0 88 -1 95 -20 95
-19 0 -20 -7 -20 -95z"/>
<path d="M4292 2208 l3 -93 53 -3 c47 -3 52 -1 52 17 0 17 -6 21 -35 21 l-35
0 0 75 c0 69 -2 75 -20 75 -20 0 -21 -5 -18 -92z"/>
<path d="M4441 2218 c-13 -46 -26 -88 -28 -95 -3 -8 3 -13 16 -13 14 0 25 9
31 25 6 15 17 25 30 25 13 0 24 -10 30 -25 6 -15 17 -25 30 -25 24 0 25 -5 -9
100 -23 74 -30 85 -51 88 -23 3 -27 -3 -49 -80z m59 -9 c0 -5 -4 -9 -10 -9 -5
0 -10 7 -10 16 0 8 5 12 10 9 6 -3 10 -10 10 -16z"/>
<path d="M4710 2208 c22 -75 31 -94 48 -96 20 -3 21 -3 72 161 8 24 7 27 -15
27 -19 0 -25 -8 -35 -50 -7 -27 -16 -50 -20 -50 -4 0 -13 23 -20 50 -10 42
-16 50 -35 50 l-23 0 28 -92z"/>
<path d="M4870 2204 l0 -95 52 3 c41 2 54 7 56 21 3 14 -4 17 -32 17 -29 0
-36 4 -36 20 0 16 7 20 30 20 23 0 30 4 30 20 0 16 -7 20 -30 20 -23 0 -30 4
-30 20 0 16 7 20 30 20 20 0 30 5 30 15 0 11 -12 15 -50 15 l-50 0 0 -96z"/>
<path d="M5381 2223 c-13 -43 -26 -86 -29 -96 -4 -15 0 -18 19 -15 16 2 25 11
27 26 5 32 45 30 60 -3 13 -29 42 -34 42 -7 0 9 -11 51 -23 92 -20 65 -27 75
-48 78 -23 3 -27 -3 -48 -75z m59 -14 c0 -5 -4 -9 -10 -9 -5 0 -10 7 -10 16 0
8 5 12 10 9 6 -3 10 -10 10 -16z"/>
<path d="M5755 2135 c-14 -13 -25 -31 -25 -39 0 -50 56 -95 100 -81 23 7 50
-9 50 -31 0 -8 -11 -19 -25 -24 -27 -10 -28 -11 -19 -34 9 -23 37 -20 68 9 32
30 33 65 2 102 -20 23 -31 27 -70 25 -56 -2 -73 20 -36 48 15 11 21 23 17 34
-9 23 -34 20 -62 -9z"/>
<path d="M2416 2139 c-3 -8 -12 -43 -21 -79 -10 -38 -29 -80 -47 -103 -17 -21
-29 -39 -27 -40 2 -2 11 -8 20 -15 13 -10 21 -5 46 31 21 28 53 54 97 77 36
19 66 37 66 40 0 3 -9 11 -20 18 -18 11 -25 10 -51 -9 -37 -26 -43 -21 -31 24
8 30 7 38 -9 53 -15 14 -19 14 -23 3z"/>
<path d="M5642 2049 c-23 -17 -42 -33 -42 -36 0 -8 130 -193 136 -193 3 0 25
14 50 31 38 26 43 33 33 50 -10 20 -10 20 -44 -1 -34 -21 -34 -21 -44 -1 -16
28 -14 35 13 51 22 13 23 17 11 33 -13 18 -14 18 -40 1 -26 -17 -28 -17 -41 1
-13 17 -11 21 12 40 17 14 23 26 19 38 -9 23 -14 22 -63 -14z"/>
<path d="M5020 2050 c-11 -7 -12 -12 -3 -21 16 -16 83 -3 83 16 0 17 -56 21
-80 5z"/>
<path d="M4925 2038 c-11 -6 -57 -24 -103 -38 -92 -30 -116 -45 -88 -56 28
-11 252 79 241 96 -8 13 -25 12 -50 -2z"/>
<path d="M3900 1960 c-125 -62 -165 -78 -176 -69 -16 13 -35 3 -28 -15 3 -9
-13 -19 -50 -30 -51 -16 -74 -31 -64 -41 2 -2 31 2 63 11 61 15 455 203 455
217 0 19 -51 1 -200 -73z"/>
<path d="M2554 1899 c-72 -112 -72 -104 4 -145 29 -15 35 -16 43 -3 14 22 11
28 -16 41 -14 6 -25 16 -25 22 0 6 22 45 50 85 37 57 47 78 38 88 -6 7 -14 13
-19 13 -5 0 -39 -45 -75 -101z"/>
<path d="M2140 1986 c0 -2 8 -10 18 -17 15 -13 16 -12 3 4 -13 16 -21 21 -21
13z"/>
<path d="M3110 1967 c0 -9 18 -19 45 -26 25 -6 70 -23 101 -36 65 -29 114 -34
94 -10 -14 17 -148 70 -202 79 -29 5 -38 4 -38 -7z"/>
<path d="M5499 1957 c-19 -12 -33 -26 -32 -30 6 -26 120 -197 131 -197 23 0
24 29 3 64 -30 48 -9 57 34 16 21 -20 40 -30 49 -27 24 9 20 20 -24 63 -23 23
-40 49 -40 62 0 28 -42 72 -68 72 -11 0 -34 -10 -53 -23z m70 -41 c12 -14 5
-46 -10 -46 -9 0 -29 33 -29 49 0 16 25 14 39 -3z"/>
<path d="M5110 1921 c0 -47 2 -51 24 -51 16 0 26 7 30 23 10 38 7 67 -8 67 -8
0 -21 3 -30 6 -13 5 -16 -2 -16 -45z"/>
<path d="M3407 1943 c-10 -3 -17 -9 -15 -15 4 -12 208 -20 208 -8 0 23 -133
38 -193 23z"/>
<path d="M2680 1818 c-68 -71 -82 -91 -70 -98 22 -14 31 -12 55 10 34 32 58
17 50 -31 -5 -31 -3 -40 10 -45 9 -4 18 -4 21 -2 2 3 18 56 36 118 30 109 31
113 13 126 -10 8 -21 13 -24 13 -3 -1 -44 -42 -91 -91z m64 -22 c-6 -16 -24
-23 -24 -8 0 10 22 33 27 28 2 -2 1 -11 -3 -20z"/>
<path d="M5350 1870 l-25 -19 28 -53 c15 -29 41 -77 57 -106 l30 -52 39 19
c42 22 51 37 51 82 0 20 -9 35 -30 51 -18 13 -30 31 -30 44 0 52 -71 72 -120
34z m77 -36 c3 -8 1 -20 -6 -27 -8 -8 -15 -6 -25 8 -8 11 -12 23 -10 27 9 14
34 9 41 -8z m52 -120 c-14 -14 -18 -13 -34 12 -14 22 -15 28 -4 35 9 5 21 1
34 -11 18 -18 18 -21 4 -36z"/>
<path d="M3986 1872 c-8 -14 68 -20 306 -26 174 -4 230 2 175 19 -40 12 -474
19 -481 7z"/>
<path d="M5268 1829 c-16 -9 -13 -20 37 -120 51 -100 57 -109 75 -99 19 10 17
16 -35 120 -30 61 -56 110 -58 110 -1 0 -10 -5 -19 -11z"/>
<path d="M2901 1722 c-26 -132 -26 -148 -2 -155 15 -3 37 18 96 89 43 52 80
92 83 90 2 -3 -15 -53 -38 -111 -23 -58 -41 -107 -39 -110 2 -2 27 -12 56 -24
45 -17 52 -18 57 -5 10 26 7 32 -25 43 -26 9 -29 14 -24 33 10 32 10 32 44 20
26 -9 31 -8 37 10 6 21 -9 38 -33 38 -15 0 -17 19 -5 38 7 10 15 10 36 2 15
-5 32 -7 37 -4 24 15 -2 39 -72 69 l-77 32 -43 -55 c-23 -31 -44 -51 -46 -45
-2 5 3 37 11 70 13 60 13 61 -9 71 -22 10 -23 8 -44 -96z"/>
<path d="M5148 1772 c-10 -2 -18 -9 -18 -16 0 -12 86 -206 96 -215 8 -9 104
43 104 56 0 20 -28 27 -56 14 -25 -11 -26 -9 -67 77 -32 68 -46 87 -59 84z"/>
<path d="M3215 1687 c-32 -84 -72 -217 -67 -221 17 -18 40 -3 51 35 17 55 37
46 33 -14 -3 -37 0 -48 13 -53 24 -9 35 12 35 69 0 32 5 49 14 53 21 8 37 60
26 88 -11 30 -97 66 -105 43z m60 -71 c0 -20 -30 -45 -40 -34 -3 3 -3 18 1 32
7 31 39 32 39 2z"/>
<path d="M4941 1689 c-20 -8 -22 -14 -18 -42 4 -17 9 -74 13 -125 5 -75 9 -92
21 -88 8 3 19 6 24 6 6 0 9 17 7 38 -3 32 0 37 19 40 14 2 27 -5 38 -21 11
-17 22 -23 35 -20 11 3 20 8 20 12 0 3 -30 52 -68 107 -62 94 -69 101 -91 93z
m49 -115 c0 -8 -4 -14 -10 -14 -5 0 -10 9 -10 21 0 11 5 17 10 14 6 -3 10 -13
10 -21z"/>
<path d="M3366 1642 c-3 -5 -18 -57 -34 -116 -34 -123 -32 -126 53 -126 55 0
89 30 106 93 19 73 -3 125 -61 142 -14 3 -32 9 -42 11 -9 3 -19 1 -22 -4z m82
-103 c4 -48 -30 -99 -64 -99 -29 0 -29 -1 2 108 15 52 16 53 37 39 14 -9 23
-26 25 -48z"/>
<path d="M4753 1630 c-13 -5 -23 -13 -23 -17 0 -5 14 -55 30 -113 17 -58 30
-106 30 -107 0 -2 10 -3 21 -3 19 0 21 4 16 33 -3 17 -8 40 -12 50 -15 37 25
16 45 -24 15 -28 26 -39 36 -35 9 3 20 6 25 6 5 0 -4 24 -21 53 -20 35 -30 68
-30 94 0 64 -49 90 -117 63z m68 -46 c9 -11 10 -20 2 -32 -15 -24 -26 -21 -34
10 -10 39 7 52 32 22z"/>
<path d="M4605 1588 c-9 -32 -15 -248 -6 -248 28 0 41 14 41 45 0 46 34 55 55
14 14 -27 43 -38 58 -23 3 4 -19 55 -49 115 -42 85 -59 109 -74 109 -12 0 -22
-6 -25 -12z m46 -121 c-8 -8 -11 -3 -11 19 1 25 2 27 11 11 8 -14 8 -22 0 -30z"/>
<path d="M3533 1483 c-49 -104 -51 -122 -17 -123 6 0 17 14 24 31 9 22 18 29
34 27 16 -2 22 -11 24 -40 3 -32 7 -38 27 -38 23 0 23 0 18 103 -6 137 -8 147
-37 147 -20 0 -30 -16 -73 -107z m67 -3 c0 -11 -7 -20 -15 -20 -13 0 -14 4 -5
20 6 11 13 20 15 20 3 0 5 -9 5 -20z"/>
<path d="M4497 1572 c-15 -3 -17 -12 -15 -50 3 -44 1 -47 -24 -50 -25 -3 -27
0 -33 42 -6 34 -12 46 -24 46 -10 0 -20 -2 -23 -5 -3 -3 26 -229 31 -242 1 0
10 1 22 4 19 5 20 11 14 51 -7 47 2 62 37 62 12 0 18 -13 23 -50 5 -38 11 -50
24 -50 10 0 20 2 23 5 5 5 -26 233 -33 238 -2 2 -12 2 -22 -1z"/>
<path d="M3707 1538 c-14 -75 -28 -200 -24 -204 13 -13 80 -15 107 -4 52 21
82 109 61 173 -13 39 -59 67 -109 67 -26 0 -31 -4 -35 -32z m94 -39 c14 -26 6
-97 -13 -115 -7 -7 -22 -14 -33 -16 -18 -3 -20 2 -18 42 5 85 12 110 33 110
11 0 24 -10 31 -21z"/>
<path d="M4003 1538 c-48 -23 -70 -136 -38 -197 15 -31 33 -41 70 -41 60 0 85
39 85 130 0 55 -3 65 -29 91 -31 31 -52 35 -88 17z m61 -60 c29 -42 12 -129
-27 -136 -23 -5 -50 58 -41 96 16 65 41 80 68 40z"/>
<path d="M4182 1538 c-48 -24 -42 -93 11 -127 38 -25 49 -57 23 -67 -8 -3 -23
-1 -35 5 -16 9 -21 8 -26 -9 -9 -30 2 -40 45 -40 89 0 106 101 24 149 -42 25
-38 56 7 47 25 -5 29 -3 29 18 0 35 -34 45 -78 24z"/>
<path d="M1663 6970 c-18 -11 -33 -24 -33 -29 0 -12 297 -363 317 -375 23 -12
72 42 80 86 8 54 -39 149 -116 231 -96 102 -177 131 -248 87z"/>
<path d="M6876 6536 c-94 -35 -242 -170 -266 -241 -40 -120 70 -193 196 -130
68 34 176 126 213 182 80 121 -9 238 -143 189z"/>
<path d="M778 5840 c-23 -18 -56 -77 -47 -84 17 -12 200 -106 209 -106 14 0
40 61 40 93 0 34 -36 76 -84 98 -53 24 -87 24 -118 -1z"/>
<path d="M7380 5100 c10 -34 21 -64 24 -67 2 -3 35 19 72 48 l67 54 -34 7
c-19 3 -60 10 -91 13 l-57 7 19 -62z"/>
<path d="M6152 1418 c4 -8 16 -49 28 -89 12 -41 25 -77 29 -81 3 -4 32 13 64
39 31 26 56 47 54 48 -1 1 -42 24 -91 50 -56 31 -87 43 -84 33z"/>
<path d="M5230 807 c0 -53 4 -97 9 -97 11 0 113 41 123 50 4 3 -24 37 -62 75
l-70 69 0 -97z"/>
<path d="M2920 848 c-90 -104 -89 -93 -18 -117 34 -12 67 -21 72 -21 7 0 10
33 8 95 -2 52 -6 95 -10 95 -4 -1 -27 -24 -52 -52z"/>
</g>
</svg>
